<svg xmlns="http://www.w3.org/2000/svg" height="40" viewBox="0 96 960 960" width="40"><path d="M146.666 816q-27.5 0-47.083-19.583T80 749.334V282.666q0-27.5 19.583-47.083T146.666 216h666.668q27.5 0 47.083 19.583T880 282.666v466.668q0 27.5-19.583 47.083T813.334 816H146.666Zm0-66.666h666.668V282.666H146.666v466.668ZM73.333 936q-14.166 0-23.75-9.617Q40 916.766 40 902.55q0-14.216 9.583-23.716 9.584-9.5 23.75-9.5h813.334q14.166 0 23.75 9.617Q920 888.568 920 902.784q0 14.216-9.583 23.716-9.584 9.5-23.75 9.5H73.333Zm73.333-186.666V282.666v466.668Z"/></svg>