<svg xmlns="http://www.w3.org/2000/svg" height="40" viewBox="0 96 960 960" width="40"><path d="M186.666 542.667q-27.5 0-47.083-19.583Q120 503.5 120 476.001V282.666q0-27.5 19.583-47.083T186.666 216h193.335q27.499 0 47.083 19.583 19.583 19.583 19.583 47.083v193.335q0 27.499-19.583 47.083-19.584 19.583-47.083 19.583H186.666Zm0 393.333q-27.5 0-47.083-19.583T120 869.334V675.999q0-27.499 19.583-47.083 19.583-19.583 47.083-19.583h193.335q27.499 0 47.083 19.583 19.583 19.584 19.583 47.083v193.335q0 27.5-19.583 47.083Q407.5 936 380.001 936H186.666Zm393.333-393.333q-27.499 0-47.083-19.583-19.583-19.584-19.583-47.083V282.666q0-27.5 19.583-47.083Q552.5 216 579.999 216h193.335q27.5 0 47.083 19.583T840 282.666v193.335q0 27.499-19.583 47.083-19.583 19.583-47.083 19.583H579.999Zm0 393.333q-27.499 0-47.083-19.583-19.583-19.583-19.583-47.083V675.999q0-27.499 19.583-47.083 19.584-19.583 47.083-19.583h193.335q27.5 0 47.083 19.583Q840 648.5 840 675.999v193.335q0 27.5-19.583 47.083T773.334 936H579.999ZM186.666 476.001h193.335V282.666H186.666v193.335Zm393.333 0h193.335V282.666H579.999v193.335Zm0 393.333h193.335V675.999H579.999v193.335Zm-393.333 0h193.335V675.999H186.666v193.335Zm393.333-393.333Zm0 199.998Zm-199.998 0Zm0-199.998Z"/></svg>