<svg xmlns="http://www.w3.org/2000/svg" height="40" viewBox="0 96 960 960" width="40"><path d="M209.333 1016q-20.555 0-34.944-14.39Q160 987.222 160 966.667v-128q0-20.556 14.389-34.944 14.389-14.389 34.944-14.389H260V689.333h-50.667q-20.555 0-34.944-14.389Q160 660.556 160 640V512q0-20.556 14.389-34.944 14.389-14.389 34.944-14.389H260V362.666h-50.667q-20.555 0-34.944-14.389Q160 333.889 160 313.333v-128q0-20.555 14.389-34.944Q188.778 136 209.333 136h168q20.556 0 34.944 14.389 14.389 14.389 14.389 34.944v128q0 20.556-14.389 34.944-14.388 14.389-34.944 14.389h-50.667v100.001h50.667q20.556 0 34.944 14.389 14.389 14.388 14.389 34.944v30.667h146.668V512q0-20.556 14.389-34.944 14.388-14.389 34.944-14.389h168q20.555 0 34.944 14.389Q840 491.444 840 512v128q0 20.556-14.389 34.944-14.389 14.389-34.944 14.389h-168q-20.556 0-34.944-14.389-14.389-14.388-14.389-34.944v-30.667H426.666V640q0 20.556-14.389 34.944-14.388 14.389-34.944 14.389h-50.667v100.001h50.667q20.556 0 34.944 14.389 14.389 14.388 14.389 34.944v128q0 20.555-14.389 34.943-14.388 14.39-34.944 14.39h-168Zm17.333-66.666H360V856H226.666v93.334Zm0-326.667H360v-93.334H226.666v93.334Zm413.334 0h133.334v-93.334H640v93.334ZM226.666 296H360v-93.334H226.666V296Zm66.667-46.667ZM706.667 576Zm-413.334 0Zm0 326.667Z"/></svg>