<svg xmlns="http://www.w3.org/2000/svg" height="40" viewBox="0 96 960 960" width="40"><path d="M682.667 682q-40.32 0-68.16-27.84-27.84-27.84-27.84-68.16 0-40.32 27.84-68.16 27.84-27.84 68.16-27.84 40.32 0 68.16 27.84 27.84 27.84 27.84 68.16 0 40.32-27.84 68.16-27.84 27.84-68.16 27.84Zm-164 214q-14.167 0-23.75-9.583-9.584-9.584-9.584-23.75v-19.334q0-25.333 11.5-44.5 11.5-19.166 32.5-28.833 36.667-17.667 74.834-26.167 38.166-8.5 78.5-8.5 40.333 0 78.5 8.167Q799.333 751.667 836 770q21 9 32.5 28.5t11.5 44.833v19.334q0 14.166-9.583 23.75-9.584 9.583-23.75 9.583h-328ZM400 575.333q-66 0-109.667-43.666Q246.667 488 246.667 422t43.666-109.666Q334 268.667 400 268.667t109.667 43.667Q553.333 356 553.333 422t-43.666 109.667Q466 575.333 400 575.333ZM113.333 896q-14.166 0-23.75-9.583Q80 876.833 80 862.667v-69.333Q80 762 97.333 734.5 114.667 707 149 690.667q62.667-29.667 125-45.5 62.333-15.833 126.007-15.833 25.66 0 51.159 2.666 25.5 2.667 45.5 7.334v43.203q-9.882 4.154-16.941 8.309Q472.666 695 465 701q-14.667-3-31.167-4T400 696q-57.085 0-111.709 12.333Q233.667 720.667 174.667 750q-12.667 6.333-20.334 19.333-7.667 13.001-7.667 26.667v33.334h272.001V896H113.333Zm305.334-66.666ZM400 508.667q37 0 61.833-24.833Q486.667 459 486.667 422t-24.834-61.833Q437 335.333 400 335.333t-61.833 24.834Q313.333 385 313.333 422t24.834 61.834Q363 508.667 400 508.667ZM400 422Z"/></svg>